<?xml version="1.0" encoding="UTF-8"?>
<svg id="a" data-name="Layer 3" xmlns="http://www.w3.org/2000/svg" viewBox="0 0 800 400">
  <path d="M469.18,229.32c-.36,4.11-7.46,5.55-10.75,6.03-10.25,1.5-20.42.82-30.6-.88-3.94-.66-23.06-8.51-35.39-17.04-1.46-1.01-2.83-1.76-4.15-2.29,1.04,14.64-1.63,29.07-7.51,42.71-.23.52-.57,1.07-.86,1.42l-.66-4.79c-.01-.1-.05-.29-.08-.41l-.11-.42s-.05.07-.13.17l-2.32,8.66c-.78,2.92-1.96,5.54-3.36,8.21l-1.24-4.69c-8.25,25.7-21.34,49.03-35.67,71.6-.77,4.8-2.05,19.72.84,23.96-2.07-.35-3.74-1.07-5.61-2.05-.02,4.02.29,7.56,3.01,11.03-1.54-.18-2.88-.51-4.38-.95.03,2.65,3.24,9.91,4.5,12.29,4.75,1.75,8.69,4.3,9.92,9.55,1.83,7.79-15.13,8.22-19.59,8.44-2.58.13-5.1.23-7.68.03l-2.23-.17c-3.86-.29-7.59-1.04-11.28-2.04-3.83-1.03-13.18-5.49-15.93-9.14-3.1-4.11-5.64-8.33-7.91-13.01-5.42-11.15-9.92-25.28-10.93-37.34l-2.3,4.28c-1.06-5.64-.99-10.97-.55-16.48.08-1.05.12-1.95.1-3l-3.25,5.33c.08-9.52,1.12-18.58,2.85-27.74.07-.37.14-.74.22-1.11-5.6-3.53-16.44-10-22.78-9.91,1.39-1.29,2.82-1.43,4.58-1.91.2.09.16.03-.03-.23-4.23-.91-8.27-1.5-12.76-1.73,2.87-1.32,5.8-2.12,9.11-2.78-13.99-11.97-25-26.66-30.71-44.14-.26-.81-.21-1.92.39-2.39.64-.51,1.66-.09,2.21.45l13.33,13.22c5.15,5.11,10.71,9.37,16.78,13.43,7.2,4.82,18.1,11.91,26.72,14.97.99-2.2,2.05-4.37,3.18-6.52,1.27-2.43,2.26-4.7,3.74-7.01,0,0,19.37-82.87,11.04-146.29-2.07-15.75,3.18-49.02,3.19-55.53,0-4.07-1.2-7.8-3.19-11.46,3.2,1.37,4.95,3.96,7.09,6.67-1.14-6.33-2.67-12.31-5.48-18.42l5.69,5.48.37.07c-2.62-9.07-.85-15.36,1.65-24.04,1.96-6.81,2.86-13.66,2.41-20.73,9.53,3.13,14.67,12.65,17.74,21.55,4.95-6.4,8.74-13.12,11.07-21.08,10.3,8.03,10.24,24.15,8.52,36.08,4.37.07,4.74-2.93,9.91-4.54l5.63-1.76-2.99,3.59c-1.2,1.43-1.94,3.25-2,5.21,5.98-2.94,12.7-5.12,19.01-5.01-1.45,1.08-2.73,1.95-2.96,3.72,5.69.37,11.26.75,16.82,1.97,2.28.5,4.48,1.01,6.32,2.58-6.21-.49-18.6-.95-19.45,7.37,9.71.54,19.08.84,28.63.42,4.73-.2,9.71-.84,14-2.97.14,1.81-.54,3.47-1.48,4.95,3.03.4,17.53,2.25,18.11,4.83.57,2.5.52,5.3-.03,7.91,6.62,7.77,5.77,19.51,3.72,28.54l-1.35,4.92-1.68,4.77c-1.91,5.41-4.35,10.36-7.29,15.58l-.64-15.48c-3.72,9.23-.75,14.57-4.39,24.07-3.44,8.97-9.29,17.16-16.06,24.26-.65-3.95-.81-7.62-1.95-11.31-1.45-4.69-3.73-8.92-6.08-13.37-1.45,3.8-.8,7.53.39,11.4-10.92-4.61-20.38-12.57-26.4-22.62-10.04,9.53-2.19,22.04-2.19,22.04l26.44,22.68c3.87,1.1,11.51,4.16,13.2,7.78l-4.5-.28s-.71-.02-.57.08l.27.2,4.82,3.2c2.57,1.71,4.71,3.77,6.88,6.04l-3.85-.38c3.28,3.94,3.69,15.79,19.27,21.07,15.58,5.28,29.81,12.94,32.17,13.86-2.03.84-3.7.14-5.09.1l.03.24.27.19.29.2.3.2c2.68,1.79,5.37,3.45,8.31,4.77l1.68.76c.5-.03.36.05-.07.24l-3.46-.02c3.66,1.8,7.59,5.61,7.2,10.07Z"/>
  <path d="M586.6,255.19h-172.16l8.64-16.44c11.57,2.32,25.89,2.45,37.55.41,3.75-.66,11.86-2.62,12.23-8.22.83-12.58-14.28-23.32-29.39-30.99l4.72-8.99h134.66l3.75,64.23Z"/>
</svg>