<?xml version="1.0" encoding="UTF-8"?>
<svg id="a" data-name="Layer 3" xmlns="http://www.w3.org/2000/svg" viewBox="0 0 800 400">
  <path d="M343.8,355.23l-5.1-.28-5.02-.63c-5.7-.72-11.05-2.04-16.78-3.81l14.99-3.92c-9.81-1.67-14.4,2.37-24.45.83-9.5-1.46-18.75-5.43-27.12-10.53,3.71-1.47,7.28-2.41,10.64-4.31,4.28-2.42,7.92-5.54,11.77-8.78-4.02-.62-7.53.83-11.05,2.8,2.18-11.66,7.95-22.59,16.48-30.61-11.44-7.78-58,9.89-60.87,14.39-1.64,2.58-2.8,5.23-3.18,8.26-.61,4.78-.24,9.38,1.02,14,.29,1.03.85,1.78,1.72,2.43,2.11,1.57,4.25,2.76,6.61,3.67-2.03.84-3.7.13-5.09.1l.03.24.27.19.29.2.3.2c2.68,1.79,5.37,3.45,8.31,4.77l1.68.76c.5-.03.36.05-.07.24l-3.46-.02c3.66,1.8,7.59,5.61,7.2,10.07-.36,4.11-7.46,5.55-10.75,6.03-10.25,1.5-20.42.82-30.6-.89-3.94-.66-7.08-1.98-10.16-4.48-2.23-1.82-4.31-3.58-5.7-6.25-1.35-2.59-2.25-5.28-3.1-8.12l-1.68-5.62c-15.92,7.18-21.8,5.55-39.05,3.12-.56-.08-1.19-.27-1.59-.45l4.45-1.89c.09-.04.26-.12.37-.18l.38-.21s-.08-.03-.2-.08l-8.96.04c-3.03.01-5.85-.44-8.8-1.08l4.19-2.43c-30.39-1.33-33.26-9.39-61.96-18.58-2.16,4.35-4.21,9.22-2.7,14.12-1.87-.95-3.25-2.13-4.75-3.62-1.21,3.84-1.96,7.3-.4,11.43-1.42-.63-2.61-1.34-3.9-2.21-.76,2.53-1.14,5.51.12,7.88,4.75,1.75,8.69,4.31,9.92,9.55,1.83,7.79-15.13,8.22-19.59,8.44-2.58.13-5.1.23-7.68.03l-2.23-.17c-3.86-.29-7.59-1.04-11.28-2.04-3.83-1.03-6.71-3.29-8.97-6.42-2.64-3.67-4.75-7.41-6.3-11.7-1.74-4.85-2.92-9.63-3.7-14.77-1.87-12.25-1.97-27.08.63-38.9l-3.47,3.41c.66-5.7,2.31-10.77,4.35-15.9.39-.97.69-1.83.99-2.83l-4.68,4.12c2.9-9.07,6.58-17.41,10.95-25.64,4.82-9.11,11.06-34.97,4.61-34.45,1.3-1.38,2.72-1.61,4.44-2.21.21.08.16.02-.05-.23-4.28-.63-8.35-.95-12.84-.88,2.77-1.51,5.64-2.49,8.9-3.38-14.75-11.02-26.71-24.95-33.56-42.01-.32-.79-.34-1.89.23-2.41.61-.55,1.65-.2,2.23.31l14.18,12.31c5.48,4.76,11.3,8.64,17.63,12.29,8,4.62,16.38,8.04,25.38,10.12,3.13-5.91,52.16,3.31,58.74,4.27l13.44,1.96c20.35,2.98,31.92,6.59,52.01,2.55,4.3-.86,130.86,5.92,130.86,5.92h0c.71.1,1.41.24,2.08.3,6.5.65,12.69.43,19.05-.95,3.97-.86,7.37-2.84,10.52-5.56-.65,3.41-2.81,5.68-5.01,8.34,5.94-2.46,11.46-5.22,16.83-9.27l-4.15,6.73v.37c8.32-4.49,14.84-4.1,23.85-3.51,7.07.46,13.95-.11,20.77-2.05-1.03,9.98-9.23,17.03-17.28,21.92,7.3,3.48,14.68,5.75,22.95,6.33-5.65,11.77-21.42,15.14-33.44,16,.86,4.29,3.87,4.01,6.55,8.72l2.91,5.13-4.14-2.16c-1.65-.86-3.59-1.2-5.52-.85,4.15,5.22,7.7,11.32,8.94,17.51-1.37-1.19-2.48-2.26-4.27-2.09.85,5.64,1.67,11.16,1.65,16.85,0,2.34-.03,4.59-1.18,6.73-.85-6.17-3.04-18.38-11.34-17.44,1.54,9.6,3.24,18.83,5.68,28.07,1.21,4.58,2.89,9.31,5.88,13.04-1.74.52-3.5.21-5.15-.39.26,3.05,1.53,17.61-.86,18.72-2.32,1.09-5.07,1.64-7.73,1.66-6.18,8.12-17.84,9.79-27.1,9.71Z"/>
  <path d="M443.07,330.27l4.94,1.28,4.98.92c5.65,1.04,11.15,1.39,17.14,1.44l-13.11-8.27c9.86,1.37,13.01,6.61,23.06,8.19,9.49,1.48,19.51.5,29.04-1.84-3.1-2.52-6.21-4.5-8.83-7.33-3.35-3.6-5.88-7.68-8.57-11.93,4.02.63,6.92,3.06,9.69,6.01,1.45-11.77-.75-23.94-6.46-34.16,13.26-3.96,53.66,21.31,56.53,25.81,1.64,2.58,2.8,5.23,3.18,8.26.61,4.78.24,9.38-1.02,14-.29,1.03-.85,1.78-1.72,2.43-2.11,1.57-4.25,2.76-6.61,3.67,2.03.84,3.7.13,5.09.1l-.03.24-.27.19-.29.2-.3.2c-2.68,1.79-5.37,3.45-8.31,4.77l-1.68.76c-.5-.03-.36.05.07.24l3.46-.02c-3.66,1.8-7.59,5.61-7.2,10.07.36,4.11,7.46,5.55,10.75,6.03,10.25,1.5,20.42.82,30.6-.89,3.94-.66,7.08-1.98,10.16-4.48,2.23-1.82,4.31-3.58,5.7-6.25,1.35-2.59,2.25-5.28,3.1-8.12l1.68-5.62c15.92,7.18,33.05,5.55,50.3,3.12.56-.08,1.19-.27,1.59-.45l-4.45-1.89c-.09-.04-.26-.12-.37-.18l-.38-.21s.08-.03.2-.08l8.96.04c3.03.01,5.85-.44,8.8-1.08l-4.19-2.43c30.39-1.33,37.01-9.39,65.71-18.58,2.16,4.35,4.21,9.22,2.7,14.12,1.87-.95,3.25-2.13,4.75-3.62,1.21,3.84,1.96,7.3.4,11.43,1.42-.63,2.61-1.34,3.9-2.21.76,2.53,1.14,5.51-.12,7.88-4.75,1.75-8.69,4.31-9.92,9.55-1.83,7.79,15.13,8.22,19.59,8.44,2.58.13,5.1.23,7.68.03l2.23-.17c3.86-.29,7.59-1.04,11.28-2.04,3.83-1.03,6.71-3.29,8.97-6.42,2.64-3.67,4.75-7.41,6.3-11.7,1.74-4.85,2.92-9.63,3.7-14.77,1.87-12.25,1.97-27.08-.63-38.9l3.47,3.41c-.66-5.7-2.31-10.77-4.35-15.9-.39-.97-.69-1.83-.99-2.83l4.68,4.12c-2.9-9.07-6.58-17.41-10.95-25.64-4.82-9.11-13.17-38.65-6.89-40.21-1.67-.89-3.09-.67-4.92-.68-.17.14-.15.07-.03-.23,3.86-1.95,7.62-3.55,11.9-4.91-3.1-.55-6.14-.57-9.52-.37,10.49-15.14,17.41-32.14,18.48-50.49.05-.85-.28-1.91-.98-2.21-.76-.33-1.63.34-2.02,1l-9.53,16.17c-3.68,6.25-7.98,11.78-12.81,17.25-6.12,6.93-12.98,12.83-20.86,17.65-4.85-4.61-46.15-.2-52.73.76l-13.44,1.96c-20.35,2.98-46.92,6.59-67.01,2.55-4.3-.86-100.82-6.21-100.82-6.21h0c-.71-.12-1.41-.2-2.07-.34-6.39-1.34-12.23-3.43-17.87-6.66-3.53-2.02-6.16-4.93-8.35-8.48-.41,3.45.96,6.27,2.25,9.47-4.92-4.14-9.34-8.44-13.24-13.93l1.92,7.67-.12.35c-6.56-6.79-12.89-8.39-21.66-10.55-6.88-1.7-13.27-4.32-19.17-8.23-2.03,9.82,3.65,19.03,9.85,26.12-8.01,1.11-15.73,1.04-23.79-.91,1.83,12.93,15.84,20.91,27.04,25.36-2.12,3.82-4.9,2.65-8.88,6.33l-4.32,4.01,4.6-.81c1.83-.32,3.78-.06,5.52.86-5.53,3.72-10.76,8.46-13.82,13.99,1.66-.72,3.05-1.4,4.7-.71-2.51,5.12-4.96,10.13-6.67,15.56-.7,2.23-1.36,4.39-.91,6.77,2.67-5.63,8.45-16.6,16.08-13.2-4.37,8.69-8.78,16.97-13.9,25.04-2.53,4-5.57,8-9.55,10.65,1.5,1.02,3.28,1.26,5.03,1.19-1.17,2.83-6.78,16.32-4.84,18.11,1.89,1.74,4.34,3.09,6.87,3.92,3.44,9.61,14.04,14.72,22.9,17.45Z"/>
  <path d="M443.39,396.53c-31.29,0-55.8-8.6-55.8-19.57s25.59-17.73,50.33-17.73c11.95,0,23.2,1.58,31.68,4.44,8.86,2.99,13.74,7.12,13.74,11.63,0,4.11-4.42,7.87-12.44,10.58-7.64,2.58-17.78,4-28.54,4-9.7,0-18.84-1.28-25.73-3.6-7.27-2.45-11.27-5.87-11.27-9.62,0-3.43,3.63-6.54,10.22-8.77,6.21-2.1,14.45-3.25,23.19-3.25,7.88,0,15.3,1.04,20.91,2.93,6.07,2.05,9.28,4.81,9.28,8,0,2.04-1.46,4.96-8.42,7.31-5.05,1.7-11.75,2.64-18.85,2.64-11.95,0-24.66-3.18-24.66-9.07,0-5.37,11.49-8.27,22.31-8.27,9.79,0,20.19,2.65,20.19,7.56,0,4.54-9.2,6.91-18.28,6.91-8.23,0-16.57-2.18-16.57-6.34,0-.62.5-1.12,1.12-1.12s1.12.5,1.12,1.12c0,1.43,4.92,4.09,14.32,4.09,4.46,0,8.64-.58,11.77-1.64,3.14-1.06,4.26-2.29,4.26-3.03,0-2.22-6.82-5.31-17.94-5.31-5.54,0-10.73.72-14.62,2.03-3.35,1.13-5.44,2.66-5.44,3.99,0,3.22,9.58,6.82,22.41,6.82,14.75,0,25.03-4.06,25.03-7.7,0-4.11-11.47-8.68-27.93-8.68-8.5,0-16.48,1.11-22.47,3.13-5.44,1.84-8.69,4.32-8.69,6.64,0,2.67,3.55,5.4,9.74,7.49,6.66,2.25,15.54,3.49,25.01,3.49,23.17,0,38.73-6.37,38.73-12.32,0-6.67-17.34-13.82-43.16-13.82-28.76,0-48.08,8-48.08,15.48,0,4.34,5.56,8.71,15.25,11.98,10.21,3.45,23.82,5.34,38.3,5.34,32.32,0,59.62-8.87,59.62-19.37,0-5.48-6.93-10.96-19-15.04-12.64-4.26-29.46-6.61-47.37-6.61-19.91,0-38.62,2.61-52.67,7.35-13.47,4.55-21.2,10.68-21.2,16.83,0,.62-.5,1.12-1.12,1.12s-1.12-.5-1.12-1.12c0-7.28,8.07-14.01,22.73-18.96,14.28-4.82,33.24-7.47,53.39-7.47,38.48,0,68.62,10.5,68.62,23.9,0,12.13-27.18,21.62-61.88,21.62Z"/>
</svg>