<?xml version="1.0" encoding="UTF-8"?>
<svg id="a" data-name="Layer 3" xmlns="http://www.w3.org/2000/svg" viewBox="0 0 800 400">
  <path d="M498.39,212.11v182.66h-196.78v-182.95c.28.81.6,1.62.94,2.43,4.62,10.77,13.8,17.73,22.8,18.29v.04c3.92.71,17.29,2.84,25.95-5.82,8.16-8.16-2.79-24.69-5.6-28.76h108.7c-2.81,4.07-13.76,20.6-5.6,28.76,8.66,8.66,22.04,6.53,25.96,5.82v-.04c8.98-.56,18.16-7.52,22.79-18.29.31-.71.58-1.43.84-2.14Z"/>
  <path d="M345.91,194.64s1.59-5.21,6.93-20.23c3.11-8.74,5.22-16.07,6.54-21.01.04.14.12.31.24.53l-.24-.53,8.87-28.49h0c.06-.72.16-1.42.19-2.1.3-6.52-.26-12.7-1.97-18.97-1.07-3.92-3.23-7.2-6.12-10.21,3.44.47,5.83,2.5,8.6,4.55-2.78-5.8-5.84-11.16-10.17-16.31l6.94,3.78,5.7,1.91c-4.93-8.05-7.54-8.39-11.86-16.32-3.39-6.22-7.56-11.73-12.84-16.45,8.98-4.46,27.64,2.09,32.96,9.86,3.08-7.48,6.22-22.16,6.35-30.45,12.06,5.01,16.28,20.57,17.78,32.53,4.23-1.09,3.79-4.08,8.35-7.01l4.96-3.18-1.93,4.25c-.77,1.7-1.01,3.65-.55,5.56,4.99-4.42,10.89-8.3,17-9.87-1.11,1.43-2.12,2.6-1.86,4.37,5.59-1.15,11.05-2.27,16.73-2.56,2.34-.12-11.4,4.84-10.02,13.08,9.51-2.05,13.9,8.35,13.38,10.03,3.03-.42,17.5-2.47,18.74-.15,1.21,2.26,1.91,4.97,2.07,7.63,8.45,5.73,10.74,17.28,11.16,26.54v5.1l-.36,5.05c-.41,5.73-1.44,11.14-2.9,16.96l-4.72-14.76c-1.14,9.88,3.15,14.25,2.15,24.37-.94,9.56-4.41,19.01-9.06,27.65-1.67-3.63-2.8-7.14-4.88-10.39-2.65-4.14-5.96-7.61-9.41-11.28-.4,4.05,1.23,7.47,3.39,10.89-11.76-1.54-22.99-6.72-31.45-14.81,8.59,13.48,25.76,40.45,25.76,40.45h-104.5Z"/>
  <path d="M347.41,223.31c-7.22,7.22-18.36,5.44-21.63,4.85v-.03c-7.48-.47-15.14-6.27-18.99-15.24-5.05-11.73-1.7-24.44,7.49-28.39,6.33-2.73,13.79-.57,19.46,4.89.27.27.54.54.79.79.03.03.05.05.07.08,4.65,4.71,7.21,7.73,7.79,8.57,1.5,2.16,3.16,3.96,5.1,5.58-2.18.15-3.55-1.04-4.85-1.52.14.18,4.62,6.07,6.96,8.23l1.35,1.25c.48.13.33.16-.15.21l-3.28-1.12c2.9,2.87,7.11,4.61-.12,11.83Z"/>
  <path d="M452.7,223.31c7.22,7.22,18.36,5.44,21.63,4.85v-.03c7.48-.47,15.14-6.27,18.99-15.24,5.05-11.73,1.7-24.44-7.49-28.39-6.33-2.73-13.79-.57-19.46,4.89-.27.27-.54.54-.79.79-.03.03-.05.05-.07.08-4.65,4.71-7.21,7.73-7.79,8.57-1.5,2.16-3.16,3.96-5.1,5.58,2.18.15,3.55-1.04,4.85-1.52-.14.18-4.62,6.07-6.96,8.23l-1.35,1.25c-.48.13-.33.16.15.21l3.28-1.12c-2.9,2.87-7.11,4.61.12,11.83Z"/>
</svg>