<?xml version="1.0" encoding="UTF-8"?>
<svg id="a" data-name="Layer 3" xmlns="http://www.w3.org/2000/svg" viewBox="0 0 800 400">
  <path d="M494.71,186.54l1.24,4.95,7.06,29.49c-.21,5.74-1.06,11.19-2.32,17.05l-5.22-14.59c-.8,9.92,3.63,14.13,2.98,24.28-.62,9.59-3.76,19.15-8.11,27.94-1.79-3.57-3.04-7.04-5.23-10.22-2.79-4.05-6.22-7.41-9.78-10.96-.26,4.06,1.48,7.42,3.76,10.76-11.8-1.15-23.2-5.94-31.94-13.73-6.75,12.08-31.12,25.43-32.34,38.51l4.2,19.59h0c.87,3.92,1.82,12.1-.57,15.31l-1.89-4.09s-.32-.63-.34-.47l-.04.33-.53,5.76c-.28,3.08-1.07,5.93-2.04,8.92l-1.49-3.57c-1.91,4.76-2.97,9.36-3.79,14.64-.47,3.02.18-2.33-.2.7-.61,4.78-.24,9.38,1.02,14,.29,1.03.85,1.78,1.72,2.43,2.11,1.57,4.25,2.76,6.61,3.67-2.03.84-3.7.13-5.09.1l.03.24.27.19.29.2.3.2c2.68,1.79,5.37,3.45,8.31,4.77l1.68.76c.5-.03.36.05-.07.24l-3.46-.02c3.66,1.8,11.34,9.36,10.95,13.82-.36,4.11-7.46,5.55-10.75,6.03-10.25,1.5-20.42.82-30.6-.89-3.94-.66-7.08-1.98-10.16-4.48-2.23-1.82-4.31-3.58-5.7-6.25-1.35-2.59-2.25-5.28-3.1-8.12l-1.68-5.62c-15.92,7.18-59.14,3.64-75.87-1.22-.55-.16-1.14-.43-1.51-.68l4.67-1.24c.1-.02.28-.09.39-.13l.41-.16s-.08-.05-.18-.11l-8.88-1.23c-3-.42-5.73-1.26-8.56-2.32l4.5-1.81c-29.89-5.65-16.86-10.21-45.6-19.27-2.14,4.36-4.17,20.49-2.64,25.38-1.87-.94-3.26-2.12-4.77-3.6-1.19,3.85-1.93,7.31-.35,11.43-1.42-.62-2.61-1.33-3.91-2.19-.75,2.54-1.12,5.51.16,7.88,4.76,1.73,8.71,4.27,9.96,9.51,1.86,7.78-15.09,8.28-19.55,8.53-2.58.14,2.4.25-.18.07l-2.23-.16c-3.86-.27-7.6-1.01-11.29-1.99-3.83-1.01-6.72-3.26-9-6.38-2.65-3.66-4.79-7.39-6.35-11.68-1.77-4.84-2.96-9.61-3.77-14.75-1.93-12.25-14.91-27.89-14.77-39.99l-2.7,4.04c-.52-5.71.06-11.01,1.02-16.45.18-1.03.3-1.93.39-2.97l-3.74,4.99c.99-9.47,2.89-18.39,5.48-27.34,2.86-9.9,11.15-35.17,19-41.75,2.1-1.76,3.87-3.49,6.12-5.07,8.02-5.66,22.03-25.42,31.94-25.15,3.26-5.62,5.94-13.16,5.59-19.62,1.34,1.33,1.54,2.76,2.1,4.5-.09.2-.02.16.23-.04.74-4.26,1.16-8.32,1.21-12.81,1.44,2.81,2.35,5.71,3.14,8.99,11.4-14.47,25.63-26.06,42.86-32.47.8-.3,1.9-.29,2.4.29.54.63.16,1.66-.37,2.22l-12.67,13.85c-4.9,5.35-8.93,11.08-12.74,17.31-4.83,7.88-8.46,16.17-10.77,25.11,5.83,3.28,11.1,7.05,16.66,10.7l11.35,7.45c17.2,11.29,64.46,4.22,68.82,4.5,2.81.18,17.74-13.46,17.74-13.46h0c.16-.7.36-1.39.48-2.05,1.21-6.42-2.93-7.81-5.09-13.95-1.35-3.83-3.74-6.95-6.84-9.74,3.47.22,5.99,2.07,8.91,3.92-3.19-5.58-6.63-10.71-11.32-15.53l7.2,3.27.37-.06c-5.5-7.67-5.93-14.19-6.48-23.21-.43-7.07-1.87-13.83-4.65-20.34,10.03-.23,18.06,7.02,23.92,14.39,2.53-7.68,3.85-15.29,3.39-23.56,12.39,4.13,17.72,19.34,20.08,31.16,4.14-1.4,3.49-4.35,7.82-7.6l4.72-3.53-1.62,4.38c-.65,1.75-.74,3.71-.14,5.58,4.66-4.77,10.26-9.06,16.25-11.08-1,1.51-1.93,2.75-1.54,4.5,5.49-1.55,10.86-3.06,16.5-3.76,2.32-.29,4.56-.54,6.82.32-6.02,1.62-17.85,5.33-15.87,13.44,9.33-2.73,10.11-4.84,18.22-9.91,4.02-2.5,8.04-5.51,10.72-9.47,1.01,1.51,1.24,3.28,1.15,5.04,2.84-1.15,16.37-6.66,18.14-4.71,1.73,1.9,3.06,4.36,3.87,6.9,9.59,3.51,14.62,14.15,17.28,23.02Z"/>
  <path d="M524.56,218.22c.4-2.94.6-5.94.6-8.99,0-18.98-7.89-36.11-20.58-48.3l96.04-96.05c19.95,18.97,37.93,42.12,52.54,68.81,15.18,27.74,25.18,56.49,30.23,84.53h-158.84Z"/>
</svg>